<svg width="81" height="81" viewBox="0 0 81 81" fill="none" xmlns="http://www.w3.org/2000/svg">
<path fill-rule="evenodd" clip-rule="evenodd" d="M16.2 16.2C16.2 14.0518 17.0534 11.9915 18.5725 10.4724C20.0915 8.9534 22.1518 8.10001 24.3 8.10001H56.7C58.8483 8.10001 60.9085 8.9534 62.4276 10.4724C63.9466 11.9915 64.8 14.0518 64.8 16.2V64.8C65.8741 64.8 66.9043 65.2267 67.6638 65.9862C68.4233 66.7457 68.85 67.7759 68.85 68.85C68.85 69.9241 68.4233 70.9543 67.6638 71.7138C66.9043 72.4733 65.8741 72.9 64.8 72.9H52.65C51.5759 72.9 50.5458 72.4733 49.7862 71.7138C49.0267 70.9543 48.6 69.9241 48.6 68.85V60.75C48.6 59.6759 48.1733 58.6457 47.4138 57.8862C46.6543 57.1267 45.6241 56.7 44.55 56.7H36.45C35.3759 56.7 34.3458 57.1267 33.5862 57.8862C32.8267 58.6457 32.4 59.6759 32.4 60.75V68.85C32.4 69.9241 31.9733 70.9543 31.2138 71.7138C30.4543 72.4733 29.4242 72.9 28.35 72.9H16.2C15.1259 72.9 14.0958 72.4733 13.3362 71.7138C12.5767 70.9543 12.15 69.9241 12.15 68.85C12.15 67.7759 12.5767 66.7457 13.3362 65.9862C14.0958 65.2267 15.1259 64.8 16.2 64.8V16.2ZM28.35 20.25H36.45V28.35H28.35V20.25ZM36.45 36.45H28.35V44.55H36.45V36.45ZM44.55 20.25H52.65V28.35H44.55V20.25ZM52.65 36.45H44.55V44.55H52.65V36.45Z" fill="black"/>
</svg>
