<svg width="66" height="66" viewBox="0 0 66 66" fill="none" xmlns="http://www.w3.org/2000/svg">
<path d="M24.75 33L30.25 38.5L41.25 27.5M21.5463 12.9167C23.5188 12.7593 25.3915 11.9837 26.8978 10.7002C28.5998 9.24898 30.7633 8.45181 33 8.45181C35.2367 8.45181 37.4002 9.24898 39.1022 10.7002C40.6085 11.9837 42.4812 12.7593 44.4538 12.9167C46.6833 13.0941 48.7767 14.0603 50.3582 15.6418C51.9397 17.2233 52.9059 19.3167 53.0832 21.5462C53.2407 23.5188 54.0163 25.3915 55.2997 26.8977C56.751 28.5997 57.5482 30.7633 57.5482 33C57.5482 35.2367 56.751 37.4002 55.2997 39.1022C54.0163 40.6085 53.2407 42.4811 53.0832 44.4537C52.9059 46.6833 51.9397 48.7767 50.3582 50.3582C48.7767 51.9397 46.6833 52.9059 44.4538 53.0832C42.4812 53.2407 40.6085 54.0163 39.1022 55.2997C37.4002 56.751 35.2367 57.5482 33 57.5482C30.7633 57.5482 28.5998 56.751 26.8978 55.2997C25.3915 54.0163 23.5188 53.2407 21.5463 53.0832C19.3167 52.9059 17.2233 51.9397 15.6418 50.3582C14.0603 48.7767 13.0941 46.6833 12.9168 44.4537C12.7593 42.4811 11.9837 40.6085 10.7003 39.1022C9.24899 37.4002 8.45183 35.2367 8.45183 33C8.45183 30.7633 9.24899 28.5997 10.7003 26.8977C11.9837 25.3915 12.7593 23.5188 12.9168 21.5462C13.0941 19.3167 14.0603 17.2233 15.6418 15.6418C17.2233 14.0603 19.3167 13.0941 21.5463 12.9167V12.9167Z" stroke="black" stroke-width="4" stroke-linecap="round" stroke-linejoin="round"/>
</svg>
