<svg width="16" height="16" viewBox="0 0 16 16" fill="none" xmlns="http://www.w3.org/2000/svg">
<path d="M5.99992 11.3333C5.99992 11.687 5.85944 12.0261 5.60939 12.2761C5.35935 12.5262 5.02021 12.6667 4.66659 12.6667C4.31296 12.6667 3.97382 12.5262 3.72378 12.2761C3.47373 12.0261 3.33325 11.687 3.33325 11.3333C3.33325 10.9797 3.47373 10.6406 3.72378 10.3905C3.97382 10.1405 4.31296 10 4.66659 10C5.02021 10 5.35935 10.1405 5.60939 10.3905C5.85944 10.6406 5.99992 10.9797 5.99992 11.3333ZM12.6666 11.3333C12.6666 11.687 12.5261 12.0261 12.2761 12.2761C12.026 12.5262 11.6869 12.6667 11.3333 12.6667C10.9796 12.6667 10.6405 12.5262 10.3904 12.2761C10.1404 12.0261 9.99992 11.687 9.99992 11.3333C9.99992 10.9797 10.1404 10.6406 10.3904 10.3905C10.6405 10.1405 10.9796 10 11.3333 10C11.6869 10 12.026 10.1405 12.2761 10.3905C12.5261 10.6406 12.6666 10.9797 12.6666 11.3333Z" stroke="#525252"/>
<path d="M8.66667 10.6666V3.99992C8.66667 3.82311 8.59643 3.65354 8.4714 3.52851C8.34638 3.40349 8.17681 3.33325 8 3.33325H2.66667C2.48986 3.33325 2.32029 3.40349 2.19526 3.52851C2.07024 3.65354 2 3.82311 2 3.99992V10.6666C2 10.8434 2.07024 11.013 2.19526 11.138C2.32029 11.263 2.48986 11.3333 2.66667 11.3333H3.33333M8.66667 10.6666C8.66667 10.8434 8.59643 11.013 8.4714 11.138C8.34638 11.263 8.17681 11.3333 8 11.3333H6M8.66667 10.6666V5.33325C8.66667 5.15644 8.7369 4.98687 8.86193 4.86185C8.98695 4.73682 9.15652 4.66659 9.33333 4.66659H11.0573C11.2341 4.66662 11.4037 4.73689 11.5287 4.86192L13.8047 7.13792C13.9297 7.26291 14 7.43246 14 7.60925V10.6666C14 10.8434 13.9298 11.013 13.8047 11.138C13.6797 11.263 13.5101 11.3333 13.3333 11.3333H12.6667M8.66667 10.6666C8.66667 10.8434 8.7369 11.013 8.86193 11.138C8.98695 11.263 9.15652 11.3333 9.33333 11.3333H10M3.33333 11.3333C3.33333 11.6869 3.47381 12.026 3.72386 12.2761C3.97391 12.5261 4.31304 12.6666 4.66667 12.6666C5.02029 12.6666 5.35943 12.5261 5.60948 12.2761C5.85952 12.026 6 11.6869 6 11.3333M3.33333 11.3333C3.33333 10.9796 3.47381 10.6405 3.72386 10.3904C3.97391 10.1404 4.31304 9.99992 4.66667 9.99992C5.02029 9.99992 5.35943 10.1404 5.60948 10.3904C5.85952 10.6405 6 10.9796 6 11.3333M10 11.3333C10 11.6869 10.1405 12.026 10.3905 12.2761C10.6406 12.5261 10.9797 12.6666 11.3333 12.6666C11.687 12.6666 12.0261 12.5261 12.2761 12.2761C12.5262 12.026 12.6667 11.6869 12.6667 11.3333M10 11.3333C10 10.9796 10.1405 10.6405 10.3905 10.3904C10.6406 10.1404 10.9797 9.99992 11.3333 9.99992C11.687 9.99992 12.0261 10.1404 12.2761 10.3904C12.5262 10.6405 12.6667 10.9796 12.6667 11.3333" stroke="#525252" stroke-linecap="round" stroke-linejoin="round"/>
</svg>
