<svg width="21" height="21" viewBox="0 0 21 21" fill="none" xmlns="http://www.w3.org/2000/svg">
<path d="M2.625 8.75H18.375M6.125 13.125H7M10.5 13.125H11.375M5.25 16.625H15.75C16.4462 16.625 17.1139 16.3484 17.6062 15.8562C18.0984 15.3639 18.375 14.6962 18.375 14V7C18.375 6.30381 18.0984 5.63613 17.6062 5.14384C17.1139 4.65156 16.4462 4.375 15.75 4.375H5.25C4.55381 4.375 3.88613 4.65156 3.39384 5.14384C2.90156 5.63613 2.625 6.30381 2.625 7V14C2.625 14.6962 2.90156 15.3639 3.39384 15.8562C3.88613 16.3484 4.55381 16.625 5.25 16.625Z" stroke="#F8941C" stroke-width="2" stroke-linecap="round" stroke-linejoin="round"/>
</svg>
