<svg width="18" height="18" viewBox="0 0 18 18" fill="none" xmlns="http://www.w3.org/2000/svg">
<path d="M3 5.25H15M14.25 5.25L13.5997 14.3565C13.5728 14.7349 13.4035 15.0891 13.1258 15.3477C12.8482 15.6063 12.4829 15.75 12.1035 15.75H5.8965C5.5171 15.75 5.1518 15.6063 4.87416 15.3477C4.59653 15.0891 4.42719 14.7349 4.40025 14.3565L3.75 5.25H14.25ZM7.5 8.25V12.75V8.25ZM10.5 8.25V12.75V8.25ZM11.25 5.25V3C11.25 2.80109 11.171 2.61032 11.0303 2.46967C10.8897 2.32902 10.6989 2.25 10.5 2.25H7.5C7.30109 2.25 7.11032 2.32902 6.96967 2.46967C6.82902 2.61032 6.75 2.80109 6.75 3V5.25H11.25Z" stroke="white" stroke-linecap="round" stroke-linejoin="round"/>
</svg>
