<svg width="68" height="60" viewBox="0 0 68 60" fill="none" xmlns="http://www.w3.org/2000/svg">
<path d="M25.5999 25.8001C28.9416 25.8001 32.1465 24.4726 34.5094 22.1096C36.8724 19.7467 38.1999 16.5418 38.1999 13.2001C38.1999 9.85837 36.8724 6.65351 34.5094 4.29055C32.1465 1.92759 28.9416 0.600098 25.5999 0.600098C22.2582 0.600098 19.0533 1.92759 16.6904 4.29055C14.3274 6.65351 12.9999 9.85837 12.9999 13.2001C12.9999 16.5418 14.3274 19.7467 16.6904 22.1096C19.0533 24.4726 22.2582 25.8001 25.5999 25.8001ZM25.5999 34.2001C32.2834 34.2001 38.6931 36.8551 43.419 41.581C48.1449 46.3069 50.7999 52.7167 50.7999 59.4001H0.399902C0.399902 52.7167 3.05489 46.3069 7.78081 41.581C12.5067 36.8551 18.9164 34.2001 25.5999 34.2001ZM59.1999 17.4001C59.1999 16.2862 58.7574 15.2179 57.9697 14.4303C57.1821 13.6426 56.1138 13.2001 54.9999 13.2001C53.886 13.2001 52.8177 13.6426 52.0301 14.4303C51.2424 15.2179 50.7999 16.2862 50.7999 17.4001V21.6001H46.5999C45.486 21.6001 44.4177 22.0426 43.6301 22.8303C42.8424 23.6179 42.3999 24.6862 42.3999 25.8001C42.3999 26.914 42.8424 27.9823 43.6301 28.77C44.4177 29.5576 45.486 30.0001 46.5999 30.0001H50.7999V34.2001C50.7999 35.314 51.2424 36.3823 52.0301 37.17C52.8177 37.9576 53.886 38.4001 54.9999 38.4001C56.1138 38.4001 57.1821 37.9576 57.9697 37.17C58.7574 36.3823 59.1999 35.314 59.1999 34.2001V30.0001H63.3999C64.5138 30.0001 65.5821 29.5576 66.3698 28.77C67.1574 27.9823 67.5999 26.914 67.5999 25.8001C67.5999 24.6862 67.1574 23.6179 66.3698 22.8303C65.5821 22.0426 64.5138 21.6001 63.3999 21.6001H59.1999V17.4001Z" fill="#F8941C"/>
</svg>
