<svg width="40" height="40" viewBox="0 0 40 40" fill="none" xmlns="http://www.w3.org/2000/svg">
<path d="M16 16L15 16L16 16ZM20 12V11V12ZM20 23L20 22L20 23ZM13 30H12C12 30.5523 12.4477 31 13 31V30ZM27 30V31C27.5523 31 28 30.5523 28 30H27ZM4 2H36V0H4V2ZM38 4V36H40V4H38ZM36 38H4V40H36V38ZM2 36V4H0V36H2ZM4 38C2.89543 38 2 37.1046 2 36H0C0 38.2091 1.79086 40 4 40V38ZM38 36C38 37.1046 37.1046 38 36 38V40C38.2091 40 40 38.2091 40 36H38ZM36 2C37.1046 2 38 2.89543 38 4H40C40 1.79086 38.2091 0 36 0V2ZM4 0C1.79086 0 0 1.79086 0 4H2C2 2.89543 2.89543 2 4 2V0ZM23 16C23 16.7956 22.6839 17.5587 22.1213 18.1213L23.5355 19.5355C24.4732 18.5979 25 17.3261 25 16H23ZM22.1213 18.1213C21.5587 18.6839 20.7956 19 20 19V21C21.3261 21 22.5979 20.4732 23.5355 19.5355L22.1213 18.1213ZM20 19C19.2044 19 18.4413 18.6839 17.8787 18.1213L16.4645 19.5355C17.4021 20.4732 18.6739 21 20 21V19ZM17.8787 18.1213C17.3161 17.5587 17 16.7956 17 16L15 16C15 17.3261 15.5268 18.5979 16.4645 19.5355L17.8787 18.1213ZM17 16C17 15.2044 17.3161 14.4413 17.8787 13.8787L16.4645 12.4645C15.5268 13.4021 15 14.6739 15 16H17ZM17.8787 13.8787C18.4413 13.3161 19.2044 13 20 13V11C18.6739 11 17.4021 11.5268 16.4645 12.4645L17.8787 13.8787ZM20 13C20.7956 13 21.5587 13.3161 22.1213 13.8787L23.5355 12.4645C22.5979 11.5268 21.3261 11 20 11V13ZM22.1213 13.8787C22.6839 14.4413 23 15.2044 23 16H25C25 14.6739 24.4732 13.4021 23.5355 12.4645L22.1213 13.8787ZM20 22C17.8783 22 15.8434 22.8429 14.3431 24.3431L15.7574 25.7574C16.8826 24.6321 18.4087 24 20 24L20 22ZM14.3431 24.3431C12.8429 25.8434 12 27.8783 12 30H14C14 28.4087 14.6321 26.8826 15.7574 25.7574L14.3431 24.3431ZM13 31H27V29H13V31ZM28 30C28 27.8783 27.1571 25.8434 25.6569 24.3431L24.2426 25.7574C25.3679 26.8826 26 28.4087 26 30H28ZM25.6569 24.3431C24.1566 22.8429 22.1217 22 20 22V24C21.5913 24 23.1174 24.6321 24.2426 25.7574L25.6569 24.3431Z" fill="#F8941C"/>
</svg>
