<svg width="16" height="16" viewBox="0 0 16 16" fill="none" xmlns="http://www.w3.org/2000/svg">
<path d="M11.3333 10.6667L14 8.00008M14 8.00008L11.3333 5.33341M14 8.00008H4.66667M8.66667 10.6667V11.3334C8.66667 11.8638 8.45595 12.3726 8.08088 12.7476C7.70581 13.1227 7.1971 13.3334 6.66667 13.3334H4C3.46957 13.3334 2.96086 13.1227 2.58579 12.7476C2.21071 12.3726 2 11.8638 2 11.3334V4.66675C2 4.13632 2.21071 3.62761 2.58579 3.25253C2.96086 2.87746 3.46957 2.66675 4 2.66675H6.66667C7.1971 2.66675 7.70581 2.87746 8.08088 3.25253C8.45595 3.62761 8.66667 4.13632 8.66667 4.66675V5.33341" stroke="#F8941C" stroke-linecap="round" stroke-linejoin="round"/>
</svg>
