<?xml version="1.0" standalone="no"?>
<!DOCTYPE svg PUBLIC "-//W3C//DTD SVG 20010904//EN"
 "http://www.w3.org/TR/2001/REC-SVG-20010904/DTD/svg10.dtd">
<svg version="1.0" xmlns="http://www.w3.org/2000/svg"
 width="920.000000pt" height="368.000000pt" viewBox="0 0 920.000000 368.000000"
 preserveAspectRatio="xMidYMid meet">

<g transform="translate(0.000000,368.000000) scale(0.100000,-0.100000)"
fill="#000000" stroke="none">
<path d="M115 3258 c-44 -23 -45 -32 -45 -265 l0 -223 2155 0 2155 0 0 219 c0
218 0 220 -24 248 l-24 28 -2099 2 c-1508 2 -2104 -1 -2118 -9z"/>
<path d="M4873 3260 c-12 -5 -26 -18 -32 -29 -8 -14 -11 -444 -11 -1405 0
-1373 0 -1386 20 -1406 20 -20 33 -20 2134 -20 l2115 0 20 26 21 27 0 1379 0
1380 -29 29 -29 29 -2094 -1 c-1180 0 -2103 -4 -2115 -9z m3030 -534 c326 -98
566 -337 663 -663 36 -120 45 -327 19 -453 -70 -346 -323 -627 -660 -733 -172
-54 -350 -58 -531 -12 -134 34 -292 114 -375 191 l-25 24 49 52 50 53 -104 3
-104 3 -33 44 -32 45 170 2 171 3 30 53 31 52 -230 0 -229 0 -21 48 -21 47
269 3 269 2 11 41 11 40 30 -25 c42 -35 102 -50 163 -40 75 13 72 34 -6 34
-127 0 -188 69 -188 211 0 92 22 161 72 223 30 39 21 36 -29 -8 -24 -20 -22
-22 -38 29 -4 13 -45 15 -295 15 -225 0 -290 3 -290 13 0 6 4 28 10 47 l10 35
262 -1 c145 0 266 1 270 3 4 2 -3 26 -14 53 l-21 50 -223 0 c-123 0 -224 2
-224 5 0 2 10 25 22 50 l22 45 174 2 174 3 -39 52 -38 53 -95 0 -95 1 75 72
c128 124 287 210 460 248 128 28 352 21 473 -15z m-2212 -736 c1 -27 3 -54 4
-60 1 -5 3 -47 4 -92 l2 -83 15 40 c8 22 30 86 50 143 l36 102 79 0 c57 0 79
-4 79 -12 0 -33 -74 -464 -81 -472 -5 -5 -29 -10 -54 -11 -35 -1 -45 3 -45 15
0 9 11 85 25 169 14 85 24 155 23 157 -2 1 -30 -73 -62 -164 -33 -92 -63 -169
-67 -172 -5 -3 -21 -5 -36 -5 l-28 2 -6 134 c-4 74 -8 150 -9 169 -1 19 -15
-39 -30 -129 -16 -90 -31 -166 -34 -169 -9 -8 -86 -10 -91 -2 -2 4 14 112 35
241 22 129 40 237 40 242 0 4 34 7 75 7 l75 0 1 -50z m997 -12 c-3 -29 0 -33
20 -30 24 4 25 -2 16 -60 -6 -33 -10 -38 -34 -38 -27 0 -28 -2 -42 -92 -8 -51
-12 -99 -10 -105 2 -7 17 -13 33 -13 29 0 29 -1 23 -42 -4 -24 -8 -45 -10 -47
-2 -2 -28 -6 -58 -9 -72 -6 -96 16 -96 87 0 43 44 335 55 369 3 7 23 12 55 12
l50 0 -2 -32z m294 -44 c42 -22 62 -69 61 -141 -1 -35 -5 -67 -8 -73 -3 -6
-51 -10 -111 -10 -116 0 -127 -8 -78 -57 23 -23 31 -25 82 -20 32 3 66 9 76
13 18 7 19 4 12 -37 -4 -24 -14 -50 -23 -56 -28 -21 -147 -16 -194 8 -129 66
-89 344 57 389 34 11 88 4 126 -16z m-763 -10 c48 -40 48 -69 5 -341 -5 -32
-7 -33 -49 -33 -33 0 -45 4 -45 15 0 12 -6 11 -32 -5 -49 -30 -103 -26 -139 9
-25 25 -29 37 -29 84 0 46 5 61 27 88 34 40 79 59 143 59 54 0 73 17 50 45
-14 17 -87 20 -138 6 -35 -11 -37 -8 -26 49 9 40 29 49 126 49 68 1 80 -2 107
-25z m307 -5 c-3 -17 -6 -38 -6 -45 0 -10 -15 -14 -54 -14 -84 0 -104 -44 -33
-73 50 -21 77 -61 77 -114 0 -96 -59 -138 -183 -131 -42 2 -78 6 -82 9 -3 4
-3 25 1 47 l6 41 64 -6 c65 -6 94 4 94 32 0 7 -22 27 -50 44 -66 41 -84 70
-77 127 5 47 34 89 72 104 11 5 55 9 99 9 l79 1 -7 -31z m674 5 l0 -23 26 24
c31 29 70 34 60 9 -4 -9 -11 -36 -17 -60 -8 -32 -17 -44 -32 -46 -30 -4 -46
-42 -68 -164 -10 -58 -21 -110 -24 -115 -6 -9 -88 -13 -97 -4 -4 4 43 321 57
381 4 17 12 20 50 20 40 0 45 -2 45 -22z"/>
<path d="M8368 1968 c-5 -38 4 -69 16 -57 2 2 7 25 11 52 6 38 5 47 -8 47 -10
0 -16 -13 -19 -42z"/>
<path d="M7459 1925 c-15 -8 -29 -21 -32 -29 -5 -12 0 -11 23 2 28 16 63 13
123 -13 13 -6 17 -2 17 18 0 17 -7 26 -22 31 -38 10 -81 6 -109 -9z"/>
<path d="M7634 1910 c-15 -6 -23 -21 -28 -50 -4 -24 -5 -44 -4 -45 2 -1 33 2
70 8 57 9 70 8 92 -6 35 -23 66 -22 66 2 0 35 -25 44 -105 38 l-74 -7 6 35 c3
19 4 35 2 34 -2 0 -13 -4 -25 -9z"/>
<path d="M7946 1912 c-2 -4 -12 -66 -21 -137 -18 -139 -29 -207 -40 -242 -7
-22 -5 -23 48 -23 40 0 56 4 61 15 4 12 -4 15 -39 15 -25 0 -45 2 -45 5 0 8
50 319 56 348 5 25 -8 38 -20 19z"/>
<path d="M8137 1860 c-10 -16 -24 -30 -32 -30 -14 0 -45 -37 -45 -53 0 -5 7
-4 15 3 22 19 25 11 13 -44 -33 -154 73 -272 190 -212 27 14 31 14 26 1 -5
-12 4 -15 50 -15 50 0 56 2 56 21 0 18 -5 20 -37 17 -22 -2 -38 2 -40 9 -4 10
-11 9 -33 -2 -50 -26 -98 -19 -135 18 -61 61 -70 175 -21 272 26 50 20 62 -7
15z"/>
<path d="M8268 1839 c-26 -14 -22 -27 6 -22 45 9 71 -66 46 -133 -18 -45 -2
-40 20 7 46 102 2 192 -72 148z"/>
<path d="M7593 1730 c-31 -30 -49 -70 -32 -70 5 0 7 -23 3 -52 -5 -48 -4 -55
21 -78 31 -29 93 -33 135 -9 25 13 24 14 -23 19 -63 8 -88 34 -95 99 -3 39 0
58 16 86 26 43 16 45 -25 5z"/>
<path d="M7763 1722 c-17 -2 -37 -10 -43 -18 -10 -12 -8 -14 13 -14 24 0 25
-2 17 -30 -7 -23 -5 -30 5 -30 18 0 55 48 55 71 0 22 -7 25 -47 21z"/>
<path d="M7773 1560 c-40 -32 -30 -50 27 -50 43 0 50 3 50 20 0 15 -7 20 -24
20 -14 0 -26 6 -28 14 -2 12 -7 11 -25 -4z"/>
<path d="M6851 1834 c-11 -15 -18 -30 -15 -35 3 -5 28 -9 55 -9 55 0 68 14 49
49 -16 31 -63 28 -89 -5z"/>
<path d="M6086 1720 c-43 -8 -57 -24 -54 -60 2 -19 10 -26 31 -28 34 -4 62 18
72 55 8 34 -2 41 -49 33z"/>
<path d="M2665 2414 c-85 -20 -117 -31 -165 -55 -82 -41 -135 -92 -170 -163
-26 -52 -31 -74 -31 -134 -1 -128 66 -214 237 -302 120 -62 158 -97 158 -143
0 -40 -22 -70 -69 -95 -22 -12 -55 -16 -125 -16 -95 1 -152 13 -241 52 l-46
20 -17 -120 c-10 -66 -14 -124 -10 -128 42 -41 369 -65 482 -36 139 35 244
111 292 211 35 73 40 194 10 258 -34 72 -98 128 -222 193 -152 81 -186 126
-138 187 30 38 79 50 184 45 79 -4 120 -13 187 -42 13 -6 18 9 32 93 24 144
26 137 -40 157 -56 17 -263 29 -308 18z"/>
<path d="M1324 2025 c-76 -206 -142 -375 -145 -375 -4 0 -12 36 -19 80 -20
132 -94 262 -211 377 -74 72 -183 156 -187 143 -2 -4 40 -172 93 -371 101
-380 129 -489 146 -552 l10 -38 151 3 150 3 68 165 c233 569 380 932 380 936
0 2 -67 4 -148 4 l-149 0 -139 -375z"/>
<path d="M1885 2388 c-2 -7 -27 -157 -55 -333 -29 -176 -67 -414 -86 -530 -18
-115 -34 -216 -34 -222 0 -10 34 -13 140 -13 l139 0 6 33 c3 17 41 255 85 527
44 272 83 507 86 523 l6 27 -142 0 c-103 0 -142 -3 -145 -12z"/>
<path d="M3470 2382 c-42 -20 -53 -42 -159 -297 -44 -104 -134 -320 -201 -480
-67 -159 -124 -296 -127 -302 -4 -10 29 -13 144 -13 l149 0 30 83 29 82 187 3
186 2 16 -69 c9 -39 16 -77 16 -85 0 -14 19 -16 134 -16 l133 0 -37 178 c-20
97 -72 347 -116 555 l-79 377 -135 0 c-108 0 -142 -3 -170 -18z m145 -462 c20
-96 39 -190 42 -207 l6 -33 -122 0 c-66 0 -121 2 -121 4 0 2 32 91 70 197 39
107 73 200 76 208 2 8 6 12 8 10 2 -2 21 -83 41 -179z"/>
</g>
</svg>
