<svg width="16" height="16" viewBox="0 0 16 16" fill="none" xmlns="http://www.w3.org/2000/svg">
<path d="M8.00008 4.00008V2.66675M8.00008 4.00008C7.64646 4.00008 7.30732 4.14056 7.05727 4.39061C6.80722 4.64065 6.66675 4.97979 6.66675 5.33341C6.66675 5.68704 6.80722 6.02618 7.05727 6.27622C7.30732 6.52627 7.64646 6.66675 8.00008 6.66675M8.00008 4.00008C8.3537 4.00008 8.69284 4.14056 8.94289 4.39061C9.19294 4.64065 9.33341 4.97979 9.33341 5.33341C9.33341 5.68704 9.19294 6.02618 8.94289 6.27622C8.69284 6.52627 8.3537 6.66675 8.00008 6.66675M4.00008 12.0001C4.3537 12.0001 4.69284 11.8596 4.94289 11.6096C5.19294 11.3595 5.33341 11.0204 5.33341 10.6667C5.33341 10.3131 5.19294 9.97399 4.94289 9.72394C4.69284 9.47389 4.3537 9.33341 4.00008 9.33341M4.00008 12.0001C3.64646 12.0001 3.30732 11.8596 3.05727 11.6096C2.80722 11.3595 2.66675 11.0204 2.66675 10.6667C2.66675 10.3131 2.80722 9.97399 3.05727 9.72394C3.30732 9.47389 3.64646 9.33341 4.00008 9.33341M4.00008 12.0001V13.3334M4.00008 9.33341V2.66675M8.00008 6.66675V13.3334M12.0001 12.0001C12.3537 12.0001 12.6928 11.8596 12.9429 11.6096C13.1929 11.3595 13.3334 11.0204 13.3334 10.6667C13.3334 10.3131 13.1929 9.97399 12.9429 9.72394C12.6928 9.47389 12.3537 9.33341 12.0001 9.33341M12.0001 12.0001C11.6465 12.0001 11.3073 11.8596 11.0573 11.6096C10.8072 11.3595 10.6667 11.0204 10.6667 10.6667C10.6667 10.3131 10.8072 9.97399 11.0573 9.72394C11.3073 9.47389 11.6465 9.33341 12.0001 9.33341M12.0001 12.0001V13.3334M12.0001 9.33341V2.66675" stroke="#525252" stroke-linecap="round" stroke-linejoin="round"/>
</svg>
