<svg width="84" height="84" viewBox="0 0 84 84" fill="none" xmlns="http://www.w3.org/2000/svg">
<path d="M42 28V42M42 56H42.035M73.5 42C73.5 46.1366 72.6852 50.2328 71.1022 54.0545C69.5192 57.8763 67.1989 61.3488 64.2739 64.2739C61.3488 67.1989 57.8763 69.5192 54.0545 71.1022C50.2328 72.6852 46.1366 73.5 42 73.5C37.8634 73.5 33.7672 72.6852 29.9455 71.1022C26.1237 69.5192 22.6512 67.1989 19.7261 64.2739C16.8011 61.3488 14.4808 57.8763 12.8978 54.0545C11.3148 50.2328 10.5 46.1366 10.5 42C10.5 33.6457 13.8187 25.6335 19.7261 19.7261C25.6335 13.8187 33.6457 10.5 42 10.5C50.3543 10.5 58.3665 13.8187 64.2739 19.7261C70.1813 25.6335 73.5 33.6457 73.5 42Z" stroke="#FF0000" stroke-opacity="0.68" stroke-width="5" stroke-linecap="round" stroke-linejoin="round"/>
</svg>
