<svg width="59" height="59" viewBox="0 0 59 59" fill="none" xmlns="http://www.w3.org/2000/svg">
<path fill-rule="evenodd" clip-rule="evenodd" d="M8.84998 11.8C8.84998 11.0176 9.16078 10.2672 9.71401 9.71401C10.2672 9.16078 11.0176 8.84998 11.8 8.84998H20.65C21.4324 8.84998 22.1827 9.16078 22.7359 9.71401C23.2892 10.2672 23.6 11.0176 23.6 11.8V20.65C23.6 21.4324 23.2892 22.1827 22.7359 22.7359C22.1827 23.2892 21.4324 23.6 20.65 23.6H11.8C11.0176 23.6 10.2672 23.2892 9.71401 22.7359C9.16078 22.1827 8.84998 21.4324 8.84998 20.65V11.8ZM14.75 17.7V14.75H17.7V17.7H14.75ZM8.84998 38.35C8.84998 37.5676 9.16078 36.8172 9.71401 36.264C10.2672 35.7108 11.0176 35.4 11.8 35.4H20.65C21.4324 35.4 22.1827 35.7108 22.7359 36.264C23.2892 36.8172 23.6 37.5676 23.6 38.35V47.2C23.6 47.9824 23.2892 48.7327 22.7359 49.2859C22.1827 49.8392 21.4324 50.15 20.65 50.15H11.8C11.0176 50.15 10.2672 49.8392 9.71401 49.2859C9.16078 48.7327 8.84998 47.9824 8.84998 47.2V38.35ZM14.75 44.25V41.3H17.7V44.25H14.75ZM38.35 8.84998C37.5676 8.84998 36.8172 9.16078 36.264 9.71401C35.7108 10.2672 35.4 11.0176 35.4 11.8V20.65C35.4 21.4324 35.7108 22.1827 36.264 22.7359C36.8172 23.2892 37.5676 23.6 38.35 23.6H47.2C47.9824 23.6 48.7327 23.2892 49.2859 22.7359C49.8392 22.1827 50.15 21.4324 50.15 20.65V11.8C50.15 11.0176 49.8392 10.2672 49.2859 9.71401C48.7327 9.16078 47.9824 8.84998 47.2 8.84998H38.35ZM41.3 14.75V17.7H44.25V14.75H41.3Z" fill="black"/>
<path d="M32.45 11.8C32.45 11.0176 32.1392 10.2672 31.5859 9.71401C31.0327 9.16078 30.2824 8.84998 29.5 8.84998C28.7176 8.84998 27.9672 9.16078 27.414 9.71401C26.8608 10.2672 26.55 11.0176 26.55 11.8V14.75C26.55 15.5324 26.8608 16.2827 27.414 16.8359C27.9672 17.3892 28.7176 17.7 29.5 17.7C30.2824 17.7 31.0327 17.3892 31.5859 16.8359C32.1392 16.2827 32.45 15.5324 32.45 14.75V11.8ZM29.5 20.65C30.2824 20.65 31.0327 20.9608 31.5859 21.514C32.1392 22.0672 32.45 22.8176 32.45 23.6V26.55H38.35C39.1324 26.55 39.8827 26.8608 40.4359 27.414C40.9892 27.9672 41.3 28.7176 41.3 29.5C41.3 30.2824 40.9892 31.0327 40.4359 31.5859C39.8827 32.1392 39.1324 32.45 38.35 32.45H29.5C28.7176 32.45 27.9672 32.1392 27.414 31.5859C26.8608 31.0327 26.55 30.2824 26.55 29.5V23.6C26.55 22.8176 26.8608 22.0672 27.414 21.514C27.9672 20.9608 28.7176 20.65 29.5 20.65ZM47.2 26.55C46.4176 26.55 45.6672 26.8608 45.114 27.414C44.5608 27.9672 44.25 28.7176 44.25 29.5C44.25 30.2824 44.5608 31.0327 45.114 31.5859C45.6672 32.1392 46.4176 32.45 47.2 32.45C47.9824 32.45 48.7327 32.1392 49.2859 31.5859C49.8392 31.0327 50.15 30.2824 50.15 29.5C50.15 28.7176 49.8392 27.9672 49.2859 27.414C48.7327 26.8608 47.9824 26.55 47.2 26.55ZM26.55 38.35C26.55 37.5676 26.8608 36.8172 27.414 36.264C27.9672 35.7108 28.7176 35.4 29.5 35.4H32.45C33.2324 35.4 33.9827 35.7108 34.5359 36.264C35.0892 36.8172 35.4 37.5676 35.4 38.35C35.4 39.1324 35.0892 39.8827 34.5359 40.4359C33.9827 40.9892 33.2324 41.3 32.45 41.3V47.2C32.45 47.9824 32.1392 48.7327 31.5859 49.2859C31.0327 49.8392 30.2824 50.15 29.5 50.15C28.7176 50.15 27.9672 49.8392 27.414 49.2859C26.8608 48.7327 26.55 47.9824 26.55 47.2V38.35ZM20.65 32.45C21.4324 32.45 22.1827 32.1392 22.7359 31.5859C23.2892 31.0327 23.6 30.2824 23.6 29.5C23.6 28.7176 23.2892 27.9672 22.7359 27.414C22.1827 26.8608 21.4324 26.55 20.65 26.55H11.8C11.0176 26.55 10.2672 26.8608 9.71401 27.414C9.16078 27.9672 8.84998 28.7176 8.84998 29.5C8.84998 30.2824 9.16078 31.0327 9.71401 31.5859C10.2672 32.1392 11.0176 32.45 11.8 32.45H20.65ZM50.15 38.35C50.15 39.1324 49.8392 39.8827 49.2859 40.4359C48.7327 40.9892 47.9824 41.3 47.2 41.3H41.3C40.5176 41.3 39.7672 40.9892 39.214 40.4359C38.6608 39.8827 38.35 39.1324 38.35 38.35C38.35 37.5676 38.6608 36.8172 39.214 36.264C39.7672 35.7108 40.5176 35.4 41.3 35.4H47.2C47.9824 35.4 48.7327 35.7108 49.2859 36.264C49.8392 36.8172 50.15 37.5676 50.15 38.35ZM47.2 50.15C47.9824 50.15 48.7327 49.8392 49.2859 49.2859C49.8392 48.7327 50.15 47.9824 50.15 47.2C50.15 46.4176 49.8392 45.6672 49.2859 45.114C48.7327 44.5608 47.9824 44.25 47.2 44.25H38.35C37.5676 44.25 36.8172 44.5608 36.264 45.114C35.7108 45.6672 35.4 46.4176 35.4 47.2C35.4 47.9824 35.7108 48.7327 36.264 49.2859C36.8172 49.8392 37.5676 50.15 38.35 50.15H47.2Z" fill="black"/>
</svg>
