<svg width="85" height="85" viewBox="0 0 85 85" fill="none" xmlns="http://www.w3.org/2000/svg">
<path fill-rule="evenodd" clip-rule="evenodd" d="M42.5 76.5C51.5174 76.5 60.1654 72.9179 66.5416 66.5416C72.9179 60.1654 76.5 51.5174 76.5 42.5C76.5 33.4826 72.9179 24.8346 66.5416 18.4584C60.1654 12.0821 51.5174 8.5 42.5 8.5C33.4826 8.5 24.8346 12.0821 18.4584 18.4584C12.0821 24.8346 8.5 33.4826 8.5 42.5C8.5 51.5174 12.0821 60.1654 18.4584 66.5416C24.8346 72.9179 33.4826 76.5 42.5 76.5ZM58.2547 37.0047C59.0289 36.2032 59.4573 35.1296 59.4476 34.0153C59.4379 32.901 58.991 31.835 58.203 31.047C57.415 30.259 56.349 29.8121 55.2347 29.8024C54.1204 29.7927 53.0468 30.2211 52.2453 30.9953L38.25 44.9905L32.7547 39.4953C31.9532 38.7211 30.8796 38.2927 29.7653 38.3024C28.651 38.3121 27.585 38.759 26.797 39.547C26.009 40.335 25.5621 41.401 25.5524 42.5153C25.5427 43.6296 25.9711 44.7032 26.7453 45.5047L35.2453 54.0047C36.0422 54.8015 37.1231 55.2491 38.25 55.2491C39.3769 55.2491 40.4578 54.8015 41.2547 54.0047L58.2547 37.0047Z" fill="#F8941C"/>
</svg>
