<svg width="16" height="16" viewBox="0 0 16 16" fill="none" xmlns="http://www.w3.org/2000/svg">
<path d="M7.20005 4.7999C7.20005 5.43642 6.94719 6.04687 6.49711 6.49696C6.04702 6.94705 5.43657 7.1999 4.80005 7.1999C4.16353 7.1999 3.55308 6.94705 3.10299 6.49696C2.65291 6.04687 2.40005 5.43642 2.40005 4.7999C2.40005 4.16338 2.65291 3.55293 3.10299 3.10285C3.55308 2.65276 4.16353 2.3999 4.80005 2.3999C5.43657 2.3999 6.04702 2.65276 6.49711 3.10285C6.94719 3.55293 7.20005 4.16338 7.20005 4.7999ZM13.6 4.7999C13.6 5.11507 13.538 5.42716 13.4174 5.71834C13.2967 6.00952 13.12 6.2741 12.8971 6.49696C12.6742 6.71982 12.4097 6.8966 12.1185 7.01721C11.8273 7.13782 11.5152 7.1999 11.2 7.1999C10.8849 7.1999 10.5728 7.13782 10.2816 7.01721C9.99043 6.8966 9.72585 6.71982 9.50299 6.49696C9.28013 6.2741 9.10335 6.00952 8.98274 5.71834C8.86213 5.42716 8.80005 5.11507 8.80005 4.7999C8.80005 4.16338 9.05291 3.55293 9.50299 3.10285C9.95308 2.65276 10.5635 2.3999 11.2 2.3999C11.8366 2.3999 12.447 2.65276 12.8971 3.10285C13.3472 3.55293 13.6 4.16338 13.6 4.7999ZM10.344 13.5999C10.3808 13.3383 10.4 13.0719 10.4 12.7999C10.4019 11.543 9.97904 10.3223 9.20005 9.3359C9.80812 8.98483 10.4979 8.80001 11.2 8.8C11.9022 8.8 12.5919 8.98482 13.2 9.33588C13.8081 9.68694 14.313 10.1919 14.6641 10.7999C15.0152 11.408 15.2 12.0978 15.2 12.7999V13.5999H10.344ZM4.80005 8.7999C5.86091 8.7999 6.87833 9.22133 7.62848 9.97148C8.37862 10.7216 8.80005 11.739 8.80005 12.7999V13.5999H0.800049V12.7999C0.800049 11.739 1.22148 10.7216 1.97162 9.97148C2.72177 9.22133 3.73918 8.7999 4.80005 8.7999Z" fill="#525252"/>
</svg>
