<svg width="17" height="17" viewBox="0 0 17 17" fill="none" xmlns="http://www.w3.org/2000/svg">
<g clip-path="url(#clip0_403_424)">
<path d="M11.0168 7.44087C11.9561 7.44087 12.839 7.80577 13.5024 8.46917L14.1528 9.11962C15.4813 8.5306 16.5186 7.34989 16.8629 5.91054C17.053 5.11632 17.0402 4.34733 16.87 3.63944C16.7832 3.27819 16.3245 3.15767 16.0618 3.42017L13.7741 5.70787H11.264V3.22739L13.5517 0.939699C13.8144 0.676996 13.6936 0.218195 13.3324 0.131535C12.6245 -0.038631 11.8555 -0.0514142 11.0613 0.138667C9.22518 0.577944 7.79446 2.13816 7.50194 4.00351C7.4541 4.27993 7.44414 4.54888 7.44746 4.8145L10.196 7.56571C10.4656 7.47407 10.7412 7.44087 11.0168 7.44087ZM12.75 9.25044C11.981 8.48145 10.8385 8.33503 9.91478 8.78892L6.34512 5.24614V3.18722L2.125 5.06442e-05L0 2.09517L3.1875 6.31528L5.24742 6.31554L8.7902 9.85499C8.33631 10.7787 8.48303 11.9212 9.25205 12.6902L13.1368 16.5783C13.6222 17.0597 14.4055 17.0597 14.887 16.5782L16.6384 14.8268C17.1199 14.3453 17.1199 13.5624 16.6384 13.0766L12.75 9.25044ZM7.56699 10.1934L5.60137 8.2311L0.657422 13.175C-0.218145 14.0506 -0.218145 15.4687 0.657422 16.3443C1.09438 16.7809 1.66713 17 2.24121 17C2.81529 17 3.38805 16.7812 3.82566 16.3433L7.78016 12.3888C7.48731 11.6975 7.39102 10.9372 7.56699 10.1934ZM2.125 15.6719C1.68506 15.6719 1.32812 15.315 1.32812 14.875C1.32812 14.4348 1.68506 14.0782 2.125 14.0782C2.56494 14.0782 2.92188 14.4334 2.92188 14.875C2.92188 15.3166 2.56494 15.6719 2.125 15.6719Z" fill="white"/>
</g>
<defs>
<clipPath id="clip0_403_424">
<rect width="17" height="17" fill="white"/>
</clipPath>
</defs>
</svg>
