<svg width="11" height="11" viewBox="0 0 11 11" fill="none" xmlns="http://www.w3.org/2000/svg">
<g clip-path="url(#clip0_403_429)">
<path d="M1.375 5.5L2.29167 4.58333M2.29167 4.58333L5.5 1.375L8.70833 4.58333M2.29167 4.58333V9.16667C2.29167 9.28822 2.33996 9.4048 2.42591 9.49076C2.51186 9.57671 2.62844 9.625 2.75 9.625H4.125M8.70833 4.58333L9.625 5.5M8.70833 4.58333V9.16667C8.70833 9.28822 8.66005 9.4048 8.57409 9.49076C8.48814 9.57671 8.37156 9.625 8.25 9.625H6.875M4.125 9.625C4.24656 9.625 4.36314 9.57671 4.44909 9.49076C4.53504 9.4048 4.58333 9.28822 4.58333 9.16667V7.33333C4.58333 7.21178 4.63162 7.0952 4.71758 7.00924C4.80353 6.92329 4.92011 6.875 5.04167 6.875H5.95833C6.07989 6.875 6.19647 6.92329 6.28242 7.00924C6.36838 7.0952 6.41667 7.21178 6.41667 7.33333V9.16667C6.41667 9.28822 6.46496 9.4048 6.55091 9.49076C6.63686 9.57671 6.75344 9.625 6.875 9.625M4.125 9.625H6.875" stroke="#A6A6A6" stroke-linecap="round" stroke-linejoin="round"/>
</g>
<defs>
<clipPath id="clip0_403_429">
<rect width="11" height="11" fill="white"/>
</clipPath>
</defs>
</svg>
