<svg width="58" height="58" viewBox="0 0 58 58" fill="none" xmlns="http://www.w3.org/2000/svg">
<path d="M37.5867 25.3865C40.7914 25.3865 43.8036 26.6315 46.067 28.8948L48.2861 31.114C52.8185 29.1044 56.3574 25.0761 57.5321 20.1654C58.1807 17.4557 58.1371 14.8321 57.5565 12.4169C57.2605 11.1844 55.6953 10.7732 54.7992 11.6688L46.9941 19.4739H38.4301V11.0111L46.2352 3.20603C47.1314 2.30975 46.7194 0.744431 45.487 0.448767C43.0719 -0.1318 40.4483 -0.175413 37.7386 0.473099C31.4742 1.97181 26.5929 7.2949 25.5949 13.659C25.4316 14.6021 25.3977 15.5197 25.409 16.426L34.7864 25.8124C35.7062 25.4998 36.6465 25.3865 37.5867 25.3865ZM43.5 31.5603C40.8764 28.9367 36.9784 28.4372 33.8269 29.9857L21.648 17.8986V10.874L7.25 0.000172786L0 7.14822L10.875 21.5463L17.903 21.5471L29.9901 33.6229C28.4415 36.7744 28.9421 40.6724 31.5658 43.296L44.8197 56.5612C46.4759 58.2038 49.1482 58.2038 50.7908 56.5611L56.7664 50.5855C58.4089 48.9429 58.4089 46.2717 56.7662 44.6144L43.5 31.5603ZM25.8168 34.7775L19.1105 28.0826L2.24297 44.9502C-0.744258 47.9374 -0.744258 52.7756 2.24297 55.7629C3.73375 57.2525 5.68785 58.0002 7.64648 58.0002C9.60512 58.0002 11.5592 57.2534 13.0523 55.7595L26.5441 42.2677C25.5449 39.9092 25.2164 37.315 25.8168 34.7775ZM7.25 53.4689C5.74902 53.4689 4.53125 52.2511 4.53125 50.7502C4.53125 49.2481 5.74902 48.0314 7.25 48.0314C8.75098 48.0314 9.96875 49.2435 9.96875 50.7502C9.96875 52.2568 8.75098 53.4689 7.25 53.4689Z" fill="#F8941C"/>
</svg>
