<svg width="67" height="67" viewBox="0 0 67 67" fill="none" xmlns="http://www.w3.org/2000/svg">
<path d="M33.5 22.3333V33.5M33.5 44.6667H33.5279M58.625 33.5C58.625 36.7995 57.9751 40.0666 56.7125 43.1149C55.4498 46.1632 53.5991 48.933 51.2661 51.2661C48.933 53.5991 46.1632 55.4498 43.1149 56.7125C40.0666 57.9751 36.7995 58.625 33.5 58.625C30.2005 58.625 26.9334 57.9751 23.8851 56.7125C20.8368 55.4498 18.067 53.5991 15.7339 51.2661C13.4009 48.933 11.5502 46.1632 10.2875 43.1149C9.02488 40.0666 8.375 36.7995 8.375 33.5C8.375 26.8364 11.0221 20.4458 15.7339 15.7339C20.4458 11.0221 26.8364 8.375 33.5 8.375C40.1636 8.375 46.5542 11.0221 51.2661 15.7339C55.9779 20.4458 58.625 26.8364 58.625 33.5Z" stroke="black" stroke-width="7" stroke-linecap="round" stroke-linejoin="round"/>
</svg>
